# xmcd
# 
# Track frame offsets:
#     150
#     19787
#     26880
#     40050
#     59512
#     82687
#     103612
#     125400
#     141787
#     165962
#     186412
#     207825
#     231487
#     237682
#     251722
#     257255
#     261355
#     277237
#     307987
# 
# Disc length: 4469
# 
# Revision: 9
# Processed by: cddbd v1.5.2PL0 Copyright (c) Steve Scherf et al.
# Submitted via: fre:ac v1.0.27
# 
DISCID=10117313
DTITLE=聖飢魔II - 1999 BLACK LIST [本家極悪集大成盤]
DYEAR=1999
DGENRE=Heavy Metal
TTITLE0=1999 SECRET OBJECT
TTITLE1=聖飢魔Ⅱミサ曲第II番「創世紀」
TTITLE2=地獄の皇太子
TTITLE3=蠟人形の館‘99
TTITLE4=MASQUERADE
TTITLE5=真昼の月～MOON AT MID DAY～
TTITLE6=サクラちってサクラ咲いて
TTITLE7=敗れざる者たち
TTITLE8=BRAND NEW SONG
TTITLE9=SAVE YOUR SOUL～美しきクリシェに背をむけて～
TTITLE10=HOLY BLOOD～闘いの血統～
TTITLE11=FIRE AFTER FIRE
TTITLE12=悪魔組曲作品666番変ニ短調 序曲：心の叫び
TTITLE13=悪魔組曲作品666番変ニ短調 第1楽章：STORMY NIGHT
TTITLE14=悪魔組曲作品666番変ニ短調 第2楽章：悪魔の穴
TTITLE15=悪魔組曲作品666番変ニ短調 第3楽章：KILL THE KING GHIDRAH
TTITLE16=悪魔組曲作品666番変ニ短調 第4楽章：DEAD SYMPHONY
TTITLE17=嵐の予感
TTITLE18=EL. DORADO
EXTD=YEAR: 1999
EXTT0=
EXTT1=
EXTT2=
EXTT3=
EXTT4=
EXTT5=
EXTT6=
EXTT7=
EXTT8=
EXTT9=
EXTT10=
EXTT11=
EXTT12=
EXTT13=
EXTT14=
EXTT15=
EXTT16=
EXTT17=
EXTT18=
PLAYORDER=
